<?xml version="1.0" standalone="no"?>
<!DOCTYPE svg PUBLIC "-//W3C//DTD SVG 20010904//EN"
 "http://www.w3.org/TR/2001/REC-SVG-20010904/DTD/svg10.dtd">
<svg version="1.0" xmlns="http://www.w3.org/2000/svg"
 width="780.000000pt" height="348.000000pt" viewBox="0 0 780.000000 348.000000"
 preserveAspectRatio="xMidYMid meet">
<metadata>
Created by potrace 1.10, written by Peter Selinger 2001-2011
</metadata>
<g transform="translate(0.000000,348.000000) scale(0.100000,-0.100000)"
fill="#007cc3" stroke="none">
<path d="M4283 2623 c-10 -4 -13 -171 -13 -789 l0 -784 238 0 239 0 11 25 c14
30 -4 28 272 29 l225 1 3 83 3 82 -42 0 c-80 0 -222 54 -273 105 -9 9 -23 15
-30 12 -22 -9 -84 -127 -92 -175 -4 -26 -15 -48 -27 -57 -46 -32 -47 -25 -47
480 0 494 1 506 42 490 8 -3 128 -119 266 -258 l252 -252 128 130 c70 72 183
188 252 258 103 106 129 127 150 125 l25 -3 5 -490 c5 -519 5 -529 -39 -506
-14 8 -28 37 -46 94 -25 85 -70 167 -91 167 -6 0 -19 -9 -29 -20 -37 -41 -197
-100 -270 -100 l-46 0 3 -82 3 -83 235 -2 c129 -1 240 -2 246 -2 6 -1 17 -12
24 -26 l14 -25 240 2 241 3 3 783 c2 622 0 782 -10 782 -7 1 -123 1 -257 1
l-243 -1 -47 -37 c-25 -21 -96 -85 -156 -143 -61 -58 -147 -136 -190 -175 -44
-38 -90 -82 -103 -97 -13 -16 -30 -28 -38 -28 -9 0 -126 108 -261 240 l-246
240 -243 0 c-133 0 -248 2 -256 4 -7 3 -19 2 -25 -1z"/>
<path d="M147 1868 c2 -249 3 -457 3 -462 0 -4 134 -6 298 -4 253 4 301 7 327
21 17 9 34 17 39 17 5 0 28 19 51 43 60 60 81 135 61 213 -17 65 -47 101 -111
133 -25 12 -45 28 -45 34 0 7 16 25 35 40 19 15 44 46 55 67 26 51 27 154 3
202 -27 50 -103 118 -133 118 -14 0 -38 7 -54 15 -23 12 -76 15 -280 15 l-251
0 2 -452z m443 362 c0 -5 13 -10 29 -10 23 0 38 -10 65 -44 34 -40 36 -47 36
-114 0 -68 -2 -74 -33 -106 -47 -48 -90 -58 -242 -54 l-130 3 -3 155 c-1 85 0
160 2 167 7 16 276 19 276 3z m25 -420 c3 -5 18 -10 32 -10 19 0 41 -15 75
-50 44 -45 48 -54 48 -97 0 -57 -23 -99 -76 -139 l-37 -29 -171 0 -171 0 -3
155 c-1 85 0 160 2 167 7 16 291 19 301 3z"/>
<path d="M1136 1862 l0 -457 80 0 79 0 5 220 5 220 239 3 c185 2 241 -1 248
-10 4 -7 8 -109 8 -225 l0 -213 80 0 80 0 0 460 0 460 -80 0 -80 0 -2 -192 -3
-193 -245 0 -245 0 -3 193 -2 192 -83 0 -82 0 1 -458z"/>
<path d="M2216 1872 c0 -246 1 -453 2 -459 2 -9 25 -13 81 -13 l79 0 36 43
c20 23 40 47 46 54 5 7 10 17 10 22 0 5 6 16 13 23 13 13 158 206 187 248 8
12 23 31 33 42 9 12 17 24 17 27 0 3 14 22 30 41 38 45 40 47 73 98 21 33 34
42 50 40 l22 -3 -1 -310 c0 -207 3 -312 10 -317 6 -4 39 -8 74 -8 l62 0 0 460
0 461 -86 -3 -87 -3 -45 -65 c-25 -36 -50 -70 -56 -76 -6 -6 -17 -20 -24 -30
-23 -35 -111 -159 -119 -169 -15 -17 -107 -142 -123 -165 -14 -21 -42 -58 -65
-88 -23 -30 -50 -52 -62 -52 -10 0 -13 64 -13 325 l0 325 -72 0 -73 0 1 -448z"/>
<path d="M3270 2318 c-1 -2 -1 -208 -1 -458 l-1 -455 80 -3 79 -3 36 43 c20
24 41 48 47 55 5 7 10 16 10 21 0 5 11 22 25 38 14 16 38 47 53 69 15 22 35
49 44 59 10 11 30 38 45 60 15 23 30 43 33 46 3 3 17 23 32 45 14 22 38 54 52
70 14 17 30 35 36 42 5 7 10 16 10 21 0 13 66 82 79 82 6 0 11 -3 11 -7 1 -5
3 -146 5 -315 2 -169 6 -312 9 -317 3 -5 35 -9 71 -9 l65 -1 0 460 0 459 -83
0 c-73 0 -84 -2 -97 -21 -53 -77 -75 -106 -87 -119 -7 -8 -42 -55 -78 -105
-35 -49 -68 -94 -72 -100 -15 -17 -77 -102 -93 -125 -8 -12 -23 -31 -32 -42
-10 -12 -18 -24 -18 -27 0 -6 -46 -62 -77 -93 -42 -44 -43 -35 -43 307 l0 325
-70 0 c-38 0 -70 -1 -70 -2z"/>
<path d="M6862 2308 c-7 -7 -29 -13 -50 -15 -50 -3 -147 -55 -199 -108 -23
-23 -57 -71 -75 -106 l-33 -64 0 -160 c0 -136 3 -164 18 -185 9 -13 17 -30 17
-38 0 -27 99 -147 135 -163 11 -5 27 -13 35 -19 63 -40 94 -45 266 -45 149 0
173 2 188 18 10 9 26 17 37 17 45 0 144 89 179 160 12 25 26 53 31 62 13 26
13 27 -28 33 -21 3 -46 10 -55 16 -36 19 -66 11 -82 -23 -9 -17 -16 -37 -16
-45 0 -22 -116 -133 -138 -133 -11 0 -23 -7 -26 -16 -6 -14 -20 -16 -102 -12
-53 3 -99 10 -103 15 -3 6 -17 14 -31 18 -34 11 -113 91 -139 142 -11 23 -21
56 -21 72 0 16 -4 33 -10 36 -12 8 -13 192 -1 199 4 3 11 24 15 46 4 23 11 47
16 53 5 7 25 32 43 57 18 24 46 51 62 60 16 8 35 21 43 28 7 6 29 12 48 12 19
0 34 5 34 10 0 6 27 10 60 10 33 0 60 -4 60 -10 0 -5 9 -10 21 -10 21 0 89
-47 121 -85 10 -11 27 -39 39 -62 l21 -43 61 7 c34 3 68 10 75 16 17 13 15 52
-3 67 -8 7 -15 18 -15 24 0 19 -63 80 -116 113 -29 17 -73 35 -98 38 -25 4
-46 11 -46 16 0 14 -224 11 -238 -3z"/>
<path d="M5225 1562 c-73 -14 -157 -46 -193 -73 -41 -30 -42 -32 -26 -51 24
-25 93 -55 163 -69 88 -19 91 -16 91 95 0 52 -3 97 -7 99 -5 2 -17 2 -28 -1z"/>
<path d="M5356 1555 c-3 -9 -6 -55 -6 -101 0 -100 4 -103 90 -86 90 19 175 61
175 88 0 21 -91 73 -159 90 -28 7 -61 16 -72 19 -15 5 -23 1 -28 -10z"/>
<path d="M4803 992 c-12 -31 60 -213 98 -248 17 -16 20 -15 54 15 56 49 179
97 265 103 l35 3 5 64 c3 38 1 65 -5 67 -5 2 -108 5 -229 7 -170 1 -220 -1
-223 -11z"/>
<path d="M5359 999 c-6 -3 -9 -35 -7 -70 l3 -64 35 -3 c91 -6 196 -46 264
-101 21 -17 42 -31 46 -31 29 0 114 195 108 246 l-3 26 -218 2 c-121 0 -223
-2 -228 -5z"/>
<path d="M5190 760 c-31 -4 -87 -22 -125 -41 -93 -45 -93 -62 0 -110 57 -30
82 -37 132 -38 l62 -1 3 90 c3 93 1 111 -10 109 -4 -1 -32 -5 -62 -9z"/>
<path d="M5354 757 c-3 -8 -4 -52 -2 -98 l3 -84 63 -3 c57 -3 70 1 130 33 89
49 90 50 62 80 -44 47 -244 103 -256 72z"/>
</g>
</svg>
